<?xml version="1.0" encoding="UTF-8" standalone="no"?>
<!-- Created with Inkscape (http://www.inkscape.org/) -->

<svg
   xmlns:dc="http://purl.org/dc/elements/1.1/"
   xmlns:cc="http://creativecommons.org/ns#"
   xmlns:rdf="http://www.w3.org/1999/02/22-rdf-syntax-ns#"
   xmlns:svg="http://www.w3.org/2000/svg"
   xmlns="http://www.w3.org/2000/svg"
   xmlns:sodipodi="http://sodipodi.sourceforge.net/DTD/sodipodi-0.dtd"
   xmlns:inkscape="http://www.inkscape.org/namespaces/inkscape"
   width="744.09448819"
   height="1052.3622047"
   id="svg2"
   version="1.1"
   inkscape:version="0.48.4 r9939"
   sodipodi:docname="New document 1">
  <defs
     id="defs4" />
  <sodipodi:namedview
     id="base"
     pagecolor="#ffffff"
     bordercolor="#666666"
     borderopacity="1.0"
     inkscape:pageopacity="0.0"
     inkscape:pageshadow="2"
     inkscape:zoom="0.35"
     inkscape:cx="375"
     inkscape:cy="520"
     inkscape:document-units="px"
     inkscape:current-layer="g3077"
     showgrid="false"
     inkscape:window-width="1392"
     inkscape:window-height="729"
     inkscape:window-x="3923"
     inkscape:window-y="727"
     inkscape:window-maximized="0" />
  <metadata
     id="metadata7">
    <rdf:RDF>
      <cc:Work
         rdf:about="">
        <dc:format>image/svg+xml</dc:format>
        <dc:type
           rdf:resource="http://purl.org/dc/dcmitype/StillImage" />
        <dc:title></dc:title>
      </cc:Work>
    </rdf:RDF>
  </metadata>
  <g
     inkscape:label="Layer 1"
     inkscape:groupmode="layer"
     id="layer1">
    <g
       id="g3077"
       transform="translate(40.629389,397.53672)">
      <path
         id="path3083"
         d="m 387.44286,641.37143 c 35.9,28.7 58.9,-57 1.7,-72.8 -48,-13.3 -96.3,9.5 -144.7,62.7 0,0 89.4,-32.7 143,10.1 z"
         inkscape:connector-curvature="0"
         style="fill:#0b5567" />
      <path
         id="path3085"
         d="m 245.24286,630.57143 c 34.4,-35.7 91.6,-75.5 144.9,-60.8 12.4,3.5 21.2,10.7 26.9,19.3 l -50.4,-101.7 c -7.2,-11.5 -25.6,-9.1 -36,-0.3 l -133.2,111.6 c -12.1,10.4 -12.8,28.9 -1.6,40.1 9.9,9.9 25.6,10.8 36.5,2 l 12.9,-10.2 z"
         inkscape:connector-curvature="0"
         style="fill:#15a9ce" />
    </g>
  </g>
</svg>
